<svg width="28" height="28" viewBox="0 0 28 28" fill="none" xmlns="http://www.w3.org/2000/svg">
<path d="M25.0312 14H2.96875C2.43125 14 2 13.5548 2 13C2 12.4452 2.43125 12 2.96875 12H25.0312C25.5688 12 26 12.4452 26 13C26 13.5548 25.5688 14 25.0312 14Z" fill="#ffffff"/>
<path d="M25.0312 22H2.96875C2.43125 22 2 21.5548 2 21C2 20.4452 2.43125 20 2.96875 20H25.0312C25.5688 20 26 20.4452 26 21C26 21.5548 25.5688 22 25.0312 22Z" fill="#ffffff"/>
<path d="M25.0312 7H2.96875C2.43125 7 2 6.55484 2 6C2 5.44516 2.43125 5 2.96875 5H25.0312C25.5688 5 26 5.44516 26 6C26 6.54839 25.5688 7 25.0312 7Z" fill="#ffffff"/>
</svg>
