<svg width="28" height="28" viewBox="0 0 28 28" fill="none" xmlns="http://www.w3.org/2000/svg">
<path d="M11.9358 12C11.9358 12.8284 11.2786 13.5 10.4679 13.5C9.6572 13.5 9 12.8284 9 12C9 11.1716 9.6572 10.5 10.4679 10.5C11.2786 10.5 11.9358 11.1716 11.9358 12Z" fill="#333333"/>
<path d="M15.9952 12C15.9952 12.8284 15.338 13.5 14.5273 13.5C13.7166 13.5 13.0594 12.8284 13.0594 12C13.0594 11.1716 13.7166 10.5 14.5273 10.5C15.338 10.5 15.9952 11.1716 15.9952 12Z" fill="#333333"/>
<path d="M20 12C20 12.8284 19.3428 13.5 18.5321 13.5C17.7214 13.5 17.0642 12.8284 17.0642 12C17.0642 11.1716 17.7214 10.5 18.5321 10.5C19.3428 10.5 20 11.1716 20 12Z" fill="#333333"/>
<path d="M25 11.7753V10.682C25 8.64459 24.1907 6.69065 22.75 5.25C21.3093 3.80935 19.3554 3 17.318 3H11.682C9.64459 3 7.69065 3.80935 6.25 5.25C4.80935 6.69065 4 8.64459 4 10.682V23.6622C4 23.7823 4.14752 23.84 4.22896 23.7516L7.90967 19.7587C8.06168 19.5938 8.27573 19.5 8.5 19.5H10.2222H15.9259H17.2753C19.3388 19.5 21.3165 18.6744 22.7676 17.2072C24.1978 15.7611 25 13.8092 25 11.7753Z" stroke="#333333" stroke-width="2" stroke-linecap="round"/>
</svg>
