<svg width="18" height="22" viewBox="0 0 18 22" fill="none" xmlns="http://www.w3.org/2000/svg">
<path d="M17 17.3677C17 17.1211 16.9131 16.7848 16.7229 16.583C16.6795 16.5381 16.636 16.4989 16.5817 16.4652C16.2666 16.2466 16.0112 15.9552 15.8319 15.6076C15.3756 14.7164 14.6149 12.7993 14.6149 10.0022C14.6149 8.51121 14.0065 6.99776 12.947 5.84865C12.1593 4.99664 11.1759 4.41368 10.1436 4.16143C10.6924 3.66816 10.8879 2.8722 10.6326 2.17152C10.3772 1.46525 9.7253 1 8.99728 1C8.26927 1 7.61732 1.46525 7.36197 2.17152C7.10662 2.8778 7.30221 3.66816 7.85093 4.16143C6.81868 4.41368 5.83531 5.00224 5.04754 5.85426C3.98812 7.00336 3.37963 8.51682 3.37963 10.0078C3.37963 12.9787 2.54839 14.9069 2.04856 15.7926C1.891 16.0617 1.68455 16.2915 1.43463 16.4709C1.39117 16.5045 1.34771 16.5381 1.30968 16.5774C1.10866 16.7904 1 17.0706 1 17.3677C1 17.9843 1.4781 18.4888 2.06486 18.4888H7.09576C7.05772 18.6513 7.04143 18.8139 7.04143 18.9765C7.04143 20.0919 7.92156 21 9.00272 21C10.0839 21 10.964 20.0919 10.964 18.9765C10.964 18.8139 10.9423 18.6513 10.9097 18.4888H15.9406C16.5219 18.4888 17 17.9843 17 17.3677ZM8.99728 1.58857C9.47538 1.58857 9.91002 1.88004 10.0947 2.33969C10.2795 2.79372 10.1817 3.32063 9.84482 3.66816C9.50798 4.01569 8.99728 4.1222 8.55722 3.93722C8.11715 3.74664 7.8292 3.30381 7.8292 2.81054C7.82377 2.13229 8.35076 1.58857 8.99728 1.58857ZM1.57046 17.3677C1.57046 17.2276 1.62479 17.093 1.71715 16.9978C1.73345 16.9809 1.74975 16.9641 1.77148 16.9529C2.08659 16.7287 2.3528 16.4316 2.54839 16.0897C3.07538 15.1536 3.95552 13.1188 3.95552 10.0078C3.95552 8.66816 4.50424 7.30045 5.46587 6.26345C6.43294 5.21525 7.72598 4.61547 9.00272 4.61547C10.2795 4.61547 11.5671 5.21525 12.5396 6.26345C13.5012 7.30045 14.0499 8.66816 14.0499 10.0078C14.0499 12.9283 14.854 14.9462 15.3321 15.8823C15.5548 16.3083 15.8699 16.6726 16.2611 16.9473C16.2829 16.9641 16.3046 16.9809 16.3263 17.0034C16.3861 17.065 16.4404 17.2388 16.4404 17.3733C16.4404 17.6592 16.2122 17.9058 15.946 17.9058H2.06486C1.79864 17.9002 1.57046 17.6536 1.57046 17.3677ZM10.3881 18.9765C10.3881 19.3969 10.2034 19.7948 9.88829 20.0695C9.57318 20.3386 9.16027 20.4563 8.75823 20.3834C8.3562 20.3105 8.00306 20.0583 7.7966 19.6939C7.59015 19.3296 7.54669 18.8924 7.68251 18.4944H10.3066C10.361 18.6457 10.3881 18.8083 10.3881 18.9765Z" stroke="#333333" stroke-width="0.770583" stroke-miterlimit="10"/>
</svg>
